<svg width="44" height="10" viewBox="0 0 44 10" fill="none" xmlns="http://www.w3.org/2000/svg">
<path d="M3.36691 9.2951C2.73425 9.2951 2.16225 9.18677 1.65091 8.9701C1.14825 8.75343 0.749581 8.44143 0.454914 8.0341C0.160247 7.62677 0.00858075 7.14577 -8.59015e-05 6.5911H1.94991C1.97591 6.96377 2.10591 7.25843 2.33991 7.4751C2.58258 7.69177 2.91191 7.8001 3.32791 7.8001C3.75258 7.8001 4.08625 7.70043 4.32891 7.5011C4.57158 7.2931 4.69291 7.02443 4.69291 6.6951C4.69291 6.42643 4.61058 6.20543 4.44591 6.0321C4.28125 5.85877 4.07325 5.72443 3.82191 5.6291C3.57925 5.5251 3.24125 5.41243 2.80791 5.2911C2.21858 5.11777 1.73758 4.94877 1.36491 4.7841C1.00091 4.61077 0.684581 4.3551 0.415914 4.0171C0.155914 3.67043 0.0259141 3.2111 0.0259141 2.6391C0.0259141 2.10177 0.160247 1.63377 0.428914 1.2351C0.697581 0.836434 1.07458 0.533101 1.55991 0.325101C2.04525 0.108435 2.59991 0.000101507 3.22391 0.000101507C4.15991 0.000101507 4.91825 0.229768 5.49891 0.689101C6.08825 1.13977 6.41325 1.77243 6.47391 2.5871H4.47191C4.45458 2.2751 4.32025 2.01943 4.06891 1.8201C3.82625 1.6121 3.50125 1.5081 3.09391 1.5081C2.73858 1.5081 2.45258 1.5991 2.23591 1.7811C2.02791 1.9631 1.92391 2.22743 1.92391 2.5741C1.92391 2.81677 2.00191 3.02043 2.15791 3.1851C2.32258 3.3411 2.52191 3.4711 2.75591 3.5751C2.99858 3.67043 3.33658 3.7831 3.76991 3.9131C4.35925 4.08643 4.84025 4.25977 5.21291 4.4331C5.58558 4.60643 5.90625 4.86643 6.17491 5.2131C6.44358 5.55977 6.57791 6.01477 6.57791 6.5781C6.57791 7.06343 6.45225 7.5141 6.20091 7.9301C5.94958 8.3461 5.58125 8.67977 5.09591 8.9311C4.61058 9.17377 4.03425 9.2951 3.36691 9.2951ZM9.65279 3.9361V7.1521C9.65279 7.3761 9.70479 7.5401 9.80879 7.6441C9.92079 7.7401 10.1048 7.7881 10.3608 7.7881H11.1408V9.2041H10.0848C8.66879 9.2041 7.96079 8.5161 7.96079 7.1401V3.9361H7.16879V2.5561H7.96079V0.912101H9.65279V2.5561H11.1408V3.9361H9.65279ZM14.9411 9.3121C14.3011 9.3121 13.7251 9.1721 13.2131 8.8921C12.7011 8.6041 12.2971 8.2001 12.0011 7.6801C11.7131 7.1601 11.5691 6.5601 11.5691 5.8801C11.5691 5.2001 11.7171 4.6001 12.0131 4.0801C12.3171 3.5601 12.7291 3.1601 13.2491 2.8801C13.7691 2.5921 14.3491 2.4481 14.9891 2.4481C15.6291 2.4481 16.2091 2.5921 16.7291 2.8801C17.2491 3.1601 17.6571 3.5601 17.9531 4.0801C18.2571 4.6001 18.4091 5.2001 18.4091 5.8801C18.4091 6.5601 18.2531 7.1601 17.9411 7.6801C17.6371 8.2001 17.2211 8.6041 16.6931 8.8921C16.1731 9.1721 15.5891 9.3121 14.9411 9.3121ZM14.9411 7.8481C15.2451 7.8481 15.5291 7.7761 15.7931 7.6321C16.0651 7.4801 16.2811 7.2561 16.4411 6.9601C16.6011 6.6641 16.6811 6.3041 16.6811 5.8801C16.6811 5.2481 16.5131 4.7641 16.1771 4.4281C15.8491 4.0841 15.4451 3.9121 14.9651 3.9121C14.4851 3.9121 14.0811 4.0841 13.7531 4.4281C13.4331 4.7641 13.2731 5.2481 13.2731 5.8801C13.2731 6.5121 13.4291 7.0001 13.7411 7.3441C14.0611 7.6801 14.4611 7.8481 14.9411 7.8481ZM18.8495 5.8801C18.8495 5.1921 18.9895 4.5921 19.2695 4.0801C19.5495 3.5601 19.9375 3.1601 20.4335 2.8801C20.9295 2.5921 21.4975 2.4481 22.1375 2.4481C22.9615 2.4481 23.6415 2.6561 24.1775 3.0721C24.7215 3.4801 25.0855 4.0561 25.2695 4.8001H23.4575C23.3615 4.5121 23.1975 4.2881 22.9655 4.1281C22.7415 3.9601 22.4615 3.8761 22.1255 3.8761C21.6455 3.8761 21.2655 4.0521 20.9855 4.4041C20.7055 4.7481 20.5655 5.2401 20.5655 5.8801C20.5655 6.5121 20.7055 7.0041 20.9855 7.3561C21.2655 7.7001 21.6455 7.8721 22.1255 7.8721C22.8055 7.8721 23.2495 7.5681 23.4575 6.9601H25.2695C25.0855 7.6801 24.7215 8.2521 24.1775 8.6761C23.6335 9.1001 22.9535 9.3121 22.1375 9.3121C21.4975 9.3121 20.9295 9.1721 20.4335 8.8921C19.9375 8.6041 19.5495 8.2041 19.2695 7.6921C18.9895 7.1721 18.8495 6.5681 18.8495 5.8801ZM30.0762 9.2041L27.8202 6.3721V9.2041H26.1402V0.324101H27.8202V5.3761L30.0522 2.5561H32.2362L29.3082 5.8921L32.2602 9.2041H30.0762Z" fill="white"/>
<path d="M38.968 5.7361C38.968 5.9761 38.952 6.1921 38.92 6.3841H34.06C34.1 6.8641 34.268 7.2401 34.564 7.5121C34.86 7.7841 35.224 7.9201 35.656 7.9201C36.28 7.9201 36.724 7.6521 36.988 7.1161H38.8C38.608 7.7561 38.24 8.2841 37.696 8.7001C37.152 9.1081 36.484 9.3121 35.692 9.3121C35.052 9.3121 34.476 9.1721 33.964 8.8921C33.46 8.6041 33.064 8.2001 32.776 7.6801C32.496 7.1601 32.356 6.5601 32.356 5.8801C32.356 5.1921 32.496 4.5881 32.776 4.0681C33.056 3.5481 33.448 3.1481 33.952 2.8681C34.456 2.5881 35.036 2.4481 35.692 2.4481C36.324 2.4481 36.888 2.5841 37.384 2.8561C37.888 3.1281 38.276 3.5161 38.548 4.0201C38.828 4.5161 38.968 5.0881 38.968 5.7361ZM37.228 5.2561C37.22 4.8241 37.064 4.4801 36.76 4.2241C36.456 3.9601 36.084 3.8281 35.644 3.8281C35.228 3.8281 34.876 3.9561 34.588 4.2121C34.308 4.4601 34.136 4.8081 34.072 5.2561H37.228ZM41.7903 3.9361V7.1521C41.7903 7.3761 41.8423 7.5401 41.9463 7.6441C42.0583 7.7401 42.2423 7.7881 42.4983 7.7881H43.2783V9.2041H42.2223C40.8063 9.2041 40.0983 8.5161 40.0983 7.1401V3.9361H39.3063V2.5561H40.0983V0.912101H41.7903V2.5561H43.2783V3.9361H41.7903Z" fill="#22C55E"/>
</svg>
