<svg width="386" height="131" viewBox="0 0 386 131" fill="none" xmlns="http://www.w3.org/2000/svg">
<rect x="15" y="62" width="100" height="56" rx="10" fill="#22C55E"/>
<path d="M81.5 45.0455C81.1364 41.3788 79.5758 38.5303 76.8182 36.5C74.0606 34.4697 70.3182 33.4545 65.5909 33.4545C62.3788 33.4545 59.6667 33.9091 57.4545 34.8182C55.2424 35.697 53.5455 36.9242 52.3636 38.5C51.2121 40.0758 50.6364 41.8636 50.6364 43.8636C50.5758 45.5303 50.9242 46.9849 51.6818 48.2273C52.4697 49.4697 53.5455 50.5455 54.9091 51.4545C56.2727 52.3333 57.8485 53.1061 59.6364 53.7727C61.4242 54.4091 63.3333 54.9545 65.3636 55.4091L73.7273 57.4091C77.7879 58.3182 81.5152 59.5303 84.9091 61.0455C88.303 62.5606 91.2424 64.4242 93.7273 66.6364C96.2121 68.8485 98.1364 71.4545 99.5 74.4545C100.894 77.4545 101.606 80.8939 101.636 84.7727C101.606 90.4697 100.152 95.4091 97.2727 99.5909C94.4242 103.742 90.303 106.97 84.9091 109.273C79.5455 111.545 73.0758 112.682 65.5 112.682C57.9849 112.682 51.4394 111.53 45.8636 109.227C40.3182 106.924 35.9848 103.515 32.8636 99C29.7727 94.4545 28.1515 88.8333 28 82.1364H47.0455C47.2576 85.2576 48.1515 87.8636 49.7273 89.9545C51.3333 92.0152 53.4697 93.5758 56.1364 94.6364C58.8333 95.6667 61.8788 96.1818 65.2727 96.1818C68.6061 96.1818 71.5 95.697 73.9545 94.7273C76.4394 93.7576 78.3636 92.4091 79.7273 90.6818C81.0909 88.9546 81.7727 86.9697 81.7727 84.7273C81.7727 82.6364 81.1515 80.8788 79.9091 79.4545C78.697 78.0303 76.9091 76.8182 74.5455 75.8182C72.2121 74.8182 69.3485 73.9091 65.9545 73.0909L55.8182 70.5455C47.9697 68.6364 41.7727 65.6515 37.2273 61.5909C32.6818 57.5303 30.4242 52.0606 30.4545 45.1818C30.4242 39.5455 31.9242 34.6212 34.9545 30.4091C38.0152 26.197 42.2121 22.9091 47.5455 20.5455C52.8788 18.1818 58.9394 17 65.7273 17C72.6364 17 78.6667 18.1818 83.8182 20.5455C89 22.9091 93.0303 26.197 95.9091 30.4091C98.7879 34.6212 100.273 39.5 100.364 45.0455H81.5Z" fill="white"/>
<path d="M143.688 63.8438H117.156V57.0938H143.688V63.8438ZM133 44.9062V93.375C133 95.4375 133.297 97.0156 133.891 98.1094C134.484 99.2031 135.266 99.9531 136.234 100.359C137.203 100.766 138.344 100.969 139.656 100.969C141.219 100.969 142.812 100.906 144.438 100.781V108.281C142.812 108.531 140.938 108.656 138.812 108.656C136.438 108.656 134.188 108.156 132.062 107.156C129.938 106.156 128.203 104.656 126.859 102.656C125.516 100.656 124.844 98.25 124.844 95.4375V44.9062H133ZM174.344 109.031C169.781 109.031 165.734 107.938 162.203 105.75C158.672 103.562 155.938 100.484 154 96.5156C152.062 92.5469 151.094 87.9688 151.094 82.7812C151.094 77.5312 152.062 72.9219 154 68.9531C155.938 64.9844 158.672 61.9062 162.203 59.7188C165.734 57.5312 169.781 56.4375 174.344 56.4375C178.906 56.4375 182.938 57.5312 186.438 59.7188C189.938 61.9062 192.641 64.9844 194.547 68.9531C196.453 72.9219 197.406 77.5312 197.406 82.7812C197.406 87.9688 196.453 92.5469 194.547 96.5156C192.641 100.484 189.938 103.562 186.438 105.75C182.938 107.938 178.906 109.031 174.344 109.031ZM174.344 101.906C177.656 101.906 180.438 101.031 182.688 99.2812C184.938 97.5312 186.609 95.2188 187.703 92.3438C188.797 89.4688 189.344 86.2812 189.344 82.7812C189.344 79.2812 188.797 76.0781 187.703 73.1719C186.609 70.2656 184.938 67.9375 182.688 66.1875C180.438 64.4375 177.656 63.5625 174.344 63.5625C171.031 63.5625 168.234 64.4375 165.953 66.1875C163.672 67.9375 161.969 70.2656 160.844 73.1719C159.719 76.0781 159.156 79.2812 159.156 82.7812C159.156 86.2812 159.719 89.4688 160.844 92.3438C161.969 95.2188 163.672 97.5312 165.953 99.2812C168.234 101.031 171.031 101.906 174.344 101.906ZM228.812 109.031C224.125 109.031 220.016 107.906 216.484 105.656C212.953 103.406 210.25 100.297 208.375 96.3281C206.5 92.3594 205.562 87.8438 205.562 82.7812C205.562 77.6562 206.531 73.0938 208.469 69.0938C210.406 65.0938 213.109 61.9844 216.578 59.7656C220.047 57.5469 224.062 56.4375 228.625 56.4375C232.25 56.4375 235.516 57.0938 238.422 58.4062C241.328 59.7188 243.688 61.5938 245.5 64.0312C247.312 66.4688 248.438 69.2812 248.875 72.4688H240.812C240.438 70.8438 239.719 69.3594 238.656 68.0156C237.594 66.6719 236.234 65.5938 234.578 64.7812C232.922 63.9688 231 63.5625 228.812 63.5625C225.812 63.5625 223.172 64.3438 220.891 65.9062C218.609 67.4688 216.828 69.6719 215.547 72.5156C214.266 75.3594 213.625 78.6875 213.625 82.5C213.625 86.375 214.25 89.7656 215.5 92.6719C216.75 95.5781 218.516 97.8281 220.797 99.4219C223.078 101.016 225.75 101.812 228.812 101.812C230.812 101.812 232.641 101.469 234.297 100.781C235.953 100.094 237.344 99.0781 238.469 97.7344C239.594 96.3906 240.375 94.8125 240.812 93H248.875C248.438 96.0625 247.344 98.7969 245.594 101.203C243.844 103.609 241.531 105.516 238.656 106.922C235.781 108.328 232.5 109.031 228.812 109.031ZM266.219 79.5938H267.812L289.844 57.0938H299.781L276.062 81.1875H275.312L266.312 89.5312L266.219 79.5938ZM258.812 40.125H266.875V108H258.812V40.125ZM271.469 82.9688L277.094 77.3438L301.375 108H291.156L271.469 82.9688ZM327.625 109.031C322.812 109.031 318.609 107.953 315.016 105.797C311.422 103.641 308.656 100.594 306.719 96.6562C304.781 92.7188 303.812 88.1562 303.812 82.9688C303.812 77.7812 304.781 73.1719 306.719 69.1406C308.656 65.1094 311.359 61.9844 314.828 59.7656C318.297 57.5469 322.312 56.4375 326.875 56.4375C330.75 56.4375 334.344 57.2812 337.656 58.9688C340.969 60.6562 343.656 63.4062 345.719 67.2188C347.781 71.0312 348.812 75.9062 348.812 81.8438V85.2188H309.438V78.375H340.656C340.656 75.5 340.094 72.9531 338.969 70.7344C337.844 68.5156 336.234 66.7656 334.141 65.4844C332.047 64.2031 329.625 63.5625 326.875 63.5625C323.875 63.5625 321.25 64.2969 319 65.7656C316.75 67.2344 315 69.2031 313.75 71.6719C312.5 74.1406 311.875 76.7812 311.875 79.5938V84.1875C311.875 87.9375 312.531 91.1406 313.844 93.7969C315.156 96.4531 317 98.4688 319.375 99.8438C321.75 101.219 324.5 101.906 327.625 101.906C329.562 101.906 331.312 101.641 332.875 101.109C334.438 100.578 335.766 99.8906 336.859 99.0469C337.953 98.2031 338.812 97.2188 339.438 96.0938H348.062C347.25 98.6562 345.906 100.906 344.031 102.844C342.156 104.781 339.812 106.297 337 107.391C334.188 108.484 331.062 109.031 327.625 109.031ZM381.531 63.8438H355V57.0938H381.531V63.8438ZM370.844 44.9062V93.375C370.844 95.4375 371.141 97.0156 371.734 98.1094C372.328 99.2031 373.109 99.9531 374.078 100.359C375.047 100.766 376.188 100.969 377.5 100.969C379.062 100.969 380.656 100.906 382.281 100.781V108.281C380.656 108.531 378.781 108.656 376.656 108.656C374.281 108.656 372.031 108.156 369.906 107.156C367.781 106.156 366.047 104.656 364.703 102.656C363.359 100.656 362.688 98.25 362.688 95.4375V44.9062H370.844Z" fill="white"/>
</svg>
